<svg id="Layer_1" data-name="Layer 1" xmlns="http://www.w3.org/2000/svg" viewBox="0 0 1577.2 647.66"><defs><style>.cls-1{fill:#fff;}</style></defs><path class="cls-1" d="M475.06,503l-34.78-73.91q-46.95,26.09-82.28,24t-65.54-32.28q-58-58-55.86-156.29,1.31-60.87,28.58-121.19A365,365,0,0,1,340.5,35q72.62-72.6,148.25-82.39T620.27-1.31A202.12,202.12,0,0,1,675.7,99.55q13,58.47-4.78,126.3-32,121.5-133.47,223Q504.84,481.48,475.06,503Zm-40.65-87.6q-37-87.82-26.3-166.51t66.95-135L494,95.42a65,65,0,0,0,9.13-11.3,95.3,95.3,0,0,0,6.52-14.79,54,54,0,0,1,2,6.74l6.09,17.39q7.82,23-10.22,41.09l-27,26.95a329.16,329.16,0,0,0-30,34.35Q418.33,238,418.11,288t31.52,118.25Q475.49,390,493.1,372.36q46.74-46.74,56.3-100.43T529.62,168.46a43.15,43.15,0,0,1,21.74,11.74q32.39,32.38,17.39,90.43T499,383.44q-14.78,14.79-37.82,32.61L455.93,420l22.39,42.39q45.44-34.12,75.21-63.91,102.6-102.6,107-196.51,2-46.29-15.54-91.18A223.7,223.7,0,0,0,594.4,32.82Q541.8-19.8,477-14.14,402.89-7.4,335.5,60,262,133.46,257,227.8t61.08,160.43q27.18,27.16,59.24,34.67T434.41,415.4Z" transform="translate(-236.52 48.85)"/><path class="cls-1" d="M780.86,178.88l-2.77,9.53h-49.8L644.67,424.5q-12,0-16,2.77T619.77,442q-25.51,59.94-43,86.69-20.29,32-46.57,51t-49.34,19.06q-12.61,0-21.06-6.46t-8.46-16.29a38.47,38.47,0,0,1,1.54-8.91,136.77,136.77,0,0,0,32,4q53.8,0,85.31-50.57t93-235.63l28.59-86.08,3.39-10.45H661l3.38-8.61H668l8.61-.61q21.83,0,35.66-31.36,18.13-41.51,41-66.4t64.1-48.58q44.88-25.5,74.39-25.51,21.21,0,20.6,9.22-.31,3.69-5.84,20L892.14,79.27H882.3q5.84-18.73,5.84-28.59Q888.14,35,859.55,35q-41.81,0-69.93,30.58T734.43,170.88l-2.76,8Z" transform="translate(-236.52 48.85)"/><path class="cls-1" d="M855.07,291.39q4.29,8.61,4.3,15.37,0,29.52-40.89,67.94Q758.84,431,717,431q-36,0-36-40.89,0-46.11,28.13-96.83t72.09-83.62q53.49-40,95.29-40,24.28,0,24.29,17.83,0,11.69-11.68,28.12A135.3,135.3,0,0,1,860,245.28q-16.29,12-41.34,22.13t-38.58,10.15q-14.46,0-20-16a153.73,153.73,0,0,0,20.6,1.85,98.73,98.73,0,0,0,56.72-17.68q26-17.67,26-38.27,0-14.76-19.06-14.76-34.12,0-69.79,41.81Q749.31,264,733,303.38t-16.29,70.09q0,31.66,26.44,31.67,28.89,0,60.1-31.82T855.07,291.39Z" transform="translate(-236.52 48.85)"/><path class="cls-1" d="M990.45,291.39q4.31,8.61,4.31,15.37,0,29.52-40.89,67.94Q894.23,431,852.42,431q-36,0-36-40.89,0-46.11,28.13-96.83t72.09-83.62q53.49-40,95.3-40,24.29,0,24.29,17.83,0,11.69-11.68,28.12a135.74,135.74,0,0,1-29.21,29.67q-16.29,12-41.35,22.13t-38.58,10.15q-14.45,0-20-16a153.6,153.6,0,0,0,20.6,1.85,98.73,98.73,0,0,0,56.72-17.68q26-17.67,26-38.27,0-14.76-19.06-14.76-34.12,0-69.78,41.81Q884.7,264,868.41,303.38t-16.3,70.09q0,31.66,26.44,31.67,28.89,0,60.1-31.82T990.45,291.39Z" transform="translate(-236.52 48.85)"/><path class="cls-1" d="M1161.81,383l4.92,8.3q-36.9,26.44-87.31,36.89,6.45-50.71,59.64-154l20-38.12q10.14-19.68,10.15-25.21,0-8.29-6.77-8.3-9.53,0-36.12,21.52a443,443,0,0,0-51.8,49.8q-52.26,58.41-87.61,140.18-14.46,3.39-40.89,14.76,28.28-57.8,57-129.89t28.74-85.3q0-11.07-8.92-11.07-4.61,0-20,4.61c-.82.21-2,.51-3.38.92l-1.84-9.83a599.75,599.75,0,0,0,77.77-27.67l4-1.85a43.15,43.15,0,0,1,.61,5.54q0,27.36-40.27,116.51l-4.3,9.22,5.22-5.84q50.41-57.48,93-90.53t66.55-33q15.06,0,15.07,15.37,0,16-40.27,94.38-48.27,93.45-48.27,105.13,0,8.93,8.3,8.92,9.23,0,25.21-10.15Z" transform="translate(-236.52 48.85)"/><path class="cls-1" d="M1472.11,6.11q-1.23,20.3-28.89,90.07l-22.75,57.18-8.92,22.14q18.45,7.37,20,30.12A113.35,113.35,0,0,0,1402,200.4l-2.15,5.53-39.66,100.83q-27.66,70.41-27.66,80.24,0,8.61,8.3,8.61,8.6,0,28.28-12c.61-.41,1.64-1,3.07-1.85l5.84,7.38q-33.19,23.06-92.84,40l2.46-10.15q9.84-36.89,32.28-92.22,7.07-16.9,12.91-31.67l34.43-89.76,3.08-6.77q-33.21,0-71.63,17.68a236.72,236.72,0,0,0-67.32,46Q1177.29,316,1177.3,372.86q0,26.13,19.06,26.13,18.75,0,46.88-25.82t49.65-62.72q20.29-35,33.2-78.39a57.57,57.57,0,0,1,5.23,24.29q0,25.51-22,59.33t-58.87,65.48q-55,46.72-85.77,46.73-23.37,0-23.37-29.21,0-25.51,16.45-58.72t43.81-63.32q76.54-83.92,178-101.14l8.3-21.22L1410,96.18q9.84-25.2,10.15-34.43.61-13.22-13.22-13.22-8,0-17.83,4l-3.69-9.22,4.92-1.85Q1440.44,22.71,1472.11,6.11Z" transform="translate(-236.52 48.85)"/><path class="cls-1" d="M1562.92,173.34l-11.06,31a102.25,102.25,0,0,0-20.6-2.46q-35.67,0-76.24,54.72a310.41,310.41,0,0,0-32.74,56.88q-13.68,30.74-34,93.76l-3.38,10.45a346.35,346.35,0,0,0-38.12,10.45l3.38-9.22,27-71.93q38.43-103.91,38.43-122.36,0-9.52-8.3-9.53-4.61,0-20.6,8.3l-4-9.53a474,474,0,0,0,77.16-46.42,47.06,47.06,0,0,1,1.23,10.15q0,23.67-21.21,79l7.37-8.6q71.64-78.7,101.45-78.7Q1555.25,169.35,1562.92,173.34Z" transform="translate(-236.52 48.85)"/><path class="cls-1" d="M1632.52,291.39q4.31,8.61,4.31,15.37,0,29.52-40.89,67.94Q1536.3,431,1494.49,431q-36,0-36-40.89,0-46.11,28.12-96.83t72.09-83.62q53.49-40,95.3-40,24.29,0,24.29,17.83,0,11.69-11.68,28.12a135.52,135.52,0,0,1-29.21,29.67q-16.29,12-41.34,22.13t-38.59,10.15q-14.44,0-20-16a153.6,153.6,0,0,0,20.6,1.85,98.73,98.73,0,0,0,56.72-17.68q26-17.67,26-38.27,0-14.76-19.06-14.76-34.11,0-69.78,41.81-25.21,29.52-41.5,68.86t-16.29,70.09q0,31.66,26.43,31.67,28.91,0,60.1-31.82T1632.52,291.39Z" transform="translate(-236.52 48.85)"/><path class="cls-1" d="M1767.91,291.39q4.3,8.61,4.3,15.37,0,29.52-40.88,67.94Q1671.68,431,1629.88,431q-36,0-36-40.89,0-46.11,28.13-96.83t72.09-83.62q53.49-40,95.3-40,24.28,0,24.29,17.83,0,11.69-11.69,28.12a135.47,135.47,0,0,1-29.2,29.67q-16.3,12-41.35,22.13t-38.58,10.15q-14.45,0-20-16a153.6,153.6,0,0,0,20.6,1.85,98.7,98.7,0,0,0,56.71-17.68q26-17.67,26-38.27,0-14.76-19.06-14.76-34.12,0-69.78,41.81-25.21,29.52-41.5,68.86t-16.3,70.09q0,31.66,26.44,31.67,28.89,0,60.1-31.82T1767.91,291.39Z" transform="translate(-236.52 48.85)"/></svg>